# xmcd
#
# Track frame offsets:
#	150
#	15139
#	28895
#	38431
#	53419
#	66391
#	83493
#	106845
#	129081
#	140080
#	149993
#	165841
#	178884
#	194948
#	203962
#
# Disc length: 2896 seconds
#
# Revision: 1
# Processed by: cddbd v1.5.2PL0 Copyright (c) Steve Scherf et al.
# Submitted via: audiograbber 1.83.01
#
DISCID=ce0b4e0f
DTITLE=Various Artist - northern soul (the all-night party album
DYEAR=2004
DGENRE=Soul
TTITLE0=EDWIN STAR - Time
TTITLE1=DEAN PARRISH - I'm On My Way
TTITLE2=LORRAINE SILVER - Lost Summer Love
TTITLE3=TOMMY HUNT - Sign On The Dotted Line
TTITLE4=TAMMS - Be Young Be Foolish Be Happy
TTITLE5=TAVARES - Heaven Must Be Missing An Angle
TTITLE6=EDWIN STARR - I Have Faith In You
TTITLE7=DEAN PARRISH - Northern Soul Survivor
TTITLE8=LORRAINE SILVER - I'll Keep Holding On
TTITLE9=TAMS - Hey Girl Dont Bother Me
TTITLE10=TOMMY HUNT - loving On The Losing Side
TTITLE11=DEAN PARRISH - Tell Her
TTITLE12=DETROIT EMERALDS - Dance School
TTITLE13=EDWIN STARR - Stop Her On Sight
TTITLE14=SAM and DAVE - Soul Man
EXTD=Title: Northern Soul - The All-Night Party Album\nArtist: Verschiedene Int
EXTD=erpreten\nYear: 2004\nst Summer Love - Lorraine Silver  [2:07]\n04   Sign 
EXTD=On The Dotted Line - Tommy Hunt  [3:20]\n05:11]\n08   Northern Soul Surviv
EXTD=or - Dean Parrish  [4:56]\n09   I'll Keep Holding On - Lorraine :54]\n13  
EXTD=Dance School - The Detroit Emeralds  [3:34]\n14   Stop Her On Sight - Edw
EXTD=in Starr  [
EXTT0=
EXTT1=
EXTT2=
EXTT3=
EXTT4=
EXTT5=
EXTT6=
EXTT7=
EXTT8=
EXTT9=
EXTT10=
EXTT11=
EXTT12=
EXTT13=
EXTT14=
PLAYORDER=
